<svg width="100" height="19" xmlns="http://www.w3.org/2000/svg"><g id="Page-1" stroke="none" stroke-width="1" fill="none" fill-rule="evenodd"><g id="nespresso_logo" fill="#FFF"><path d="M90.095 3.023c-1.489 0-6.08.526-6.08 6.44 0 6.309 4.964 6.571 5.956 6.571.62 0 2.854-.131 4.343-1.708 1.116-1.183 1.613-2.76 1.613-4.863.124-6.046-4.343-6.44-5.832-6.44Zm1.861 10.514c-.372.263-.868.657-1.737.657h-.124c-.868 0-1.365-.394-1.737-.657-.868-.788-1.24-2.234-1.24-4.337 0-3.943 1.86-4.6 2.977-4.6h.124c1.117 0 2.978.657 2.978 4.6 0 2.103-.372 3.549-1.24 4.337ZM18.38 18.006c-1.116-.394-2.73-1.709-3.598-2.892-1.116-1.445-3.97-5.388-3.97-5.388-.496-.526-.869-1.183-1.365-1.84-1.24-1.84-2.605-3.812-4.094-4.995v13.143H7.09V9.2l1.489 1.971a83.22 83.22 0 0 0 2.233 3.023c.496.526 1.613 1.972 1.985 2.235 1.613 1.577 4.095 2.497 6.576 2.497 1.117 0 2.11-.132 3.102-.526v-.131c-.372.131-.869.131-1.24.131-.87.263-1.862 0-2.855-.394ZM7.71 3.943c1.117 1.446 4.095 5.388 4.095 5.388.372.526.868 1.183 1.24 1.84 1.241 1.84 2.606 3.812 4.095 4.995V3.023h-1.737v6.834l-1.49-1.971c-.744-1.183-1.488-2.235-2.232-3.023-.373-.657-1.738-1.972-2.11-2.366C8.082.92 5.477 0 2.995 0 2.003 0 1.01.131.018.526v.131C.39.526.886.526 1.258.526c.993 0 1.861.263 2.854.525 1.117.395 2.73 1.709 3.598 2.892Zm65.635 5.783C71.98 8.41 70.367 8.149 69.251 7.36c-.869-.657-.745-1.577-.372-2.103.992-1.314 3.101-.788 3.598-.657.62.131.868.263 1.489.657V3.811c-2.482-.788-6.328-1.445-7.817 1.183-.62 1.052-.744 2.892.868 4.075 1.613 1.314 4.467 1.971 4.715 3.154.248.657 0 1.183-.372 1.577-1.489 1.446-3.846.526-5.335-.131v1.577c1.613.788 3.722.92 5.46.526 1.24-.263 2.605-1.446 2.853-2.892.248-1.446-.124-2.366-.993-3.154Zm8.934 0C80.914 8.41 79.3 8.149 78.184 7.36c-.868-.657-.744-1.577-.372-2.103.992-1.183 2.978-.657 3.474-.526.62.132.868.263 1.489.658V3.81c-2.482-.788-6.328-1.445-7.817 1.183-.496 1.052-.62 2.892.993 4.075 1.613 1.314 4.466 1.971 4.715 3.154.248.657 0 1.183-.373 1.577-1.489 1.446-3.846.526-5.335-.131v1.577c1.613.788 3.598.92 5.46.526 1.24-.263 2.605-1.446 2.853-2.892.248-1.446-.124-2.366-.992-3.154Zm-25.063 6.046h7.816v-1.578h-5.087V10.12h4.095V8.674h-4.095V4.863h5.087V3.417h-7.816v12.355ZM34.882 9.726c-1.365-1.315-2.977-1.577-4.094-2.366-.869-.657-.745-1.577-.372-2.103.992-1.183 2.977-.657 3.474-.526.62.132.868.263 1.489.658V3.81c-2.482-.788-6.328-1.445-7.817 1.183-.496 1.052-.744 2.892.993 4.075 1.613 1.314 4.466 1.971 4.714 3.154.249.657 0 1.183-.372 1.577-1.489 1.446-3.846.526-5.335-.131v1.577c1.613.788 3.722.92 5.46.526 1.24-.263 2.605-1.446 2.853-2.892.124-1.446-.124-2.366-.993-3.154Zm-16.13 6.046h7.817v-1.578h-5.087V10.12h4.095V8.674h-4.095V4.863h5.087V3.417h-7.816v12.355Zm23.45-12.486h-5.086v12.617h2.605v-4.6s4.095.263 5.335-1.446c.869-1.051.993-2.891.62-4.206-.62-1.708-1.984-2.365-3.473-2.365Zm.497 5.651c-.744.789-1.985.789-2.978.657V4.863s2.234-.526 3.102.788c.496.658.496 2.366-.124 3.286Zm11.911.789c.869-1.052.993-2.76.62-4.206-.496-1.446-1.86-2.234-3.35-2.234h-5.087v12.486H49.4v-4.6h1.24l2.73 4.6h2.978l-2.978-5.126c.373-.263.993-.526 1.241-.92Zm-2.11-.789c-.744.789-1.984.657-2.977.657v-4.6s2.11-.525 3.102.789c.372.657.496 2.234-.124 3.154Zm45.164 4.075c-.869 0-1.49.657-1.49 1.577 0 .92.745 1.577 1.49 1.577.744 0 1.489-.657 1.489-1.577 0-.92-.745-1.577-1.49-1.577Zm0 2.89c-.745 0-1.365-.656-1.365-1.445 0-.788.62-1.446 1.365-1.446.744 0 1.364.658 1.364 1.446-.124.92-.744 1.446-1.364 1.446Zm.372-1.313s.248-.132.248-.395c0-.262-.248-.525-.496-.525h-.745v1.708h.248v-.657h.497c.248 0 .372.132.372.394v.263h.248c-.124-.131-.124-.263-.124-.525 0-.263-.124-.263-.248-.263Zm-.372-.132h-.497v-.525h.497c.124 0 .248 0 .248.262.124.132 0 .263-.248.263Z" id="Shape"/></g></g></svg>