<svg width="48" height="48" xmlns="http://www.w3.org/2000/svg"><g id="Original-25ml" stroke="none" stroke-width="1" fill="none" fill-rule="evenodd"><path d="M34.155 31.733c2.353 0 4.313-1.956 4.313-4.302 0-2.347-1.96-4.302-4.313-4.302h-1.569l.236-2.269-.785-.86H14.784l-.784.86 2.274 19.555.785.704h12.704l.784-.704 1.02-8.682h2.588Zm0-7.04c1.49 0 2.745 1.252 2.745 2.738s-1.255 2.738-2.745 2.738h-2.431l.627-5.476h1.804Zm-4.47 9.386-.628 5.476H17.764l-.627-5.476h12.548Zm1.49-12.515L29.92 32.515H16.98l-1.333-10.95h15.528Zm-13.41 17.99-.628-5.475h12.548l-.628 5.476H17.764Z" id="Shape" fill="#000"/></g></svg>