<svg width="48" height="48" xmlns="http://www.w3.org/2000/svg"><g id="Original-110ml" stroke="none" stroke-width="1" fill="none" fill-rule="evenodd"><path d="M38.186 22.436a4.75 4.75 0 0 0-3.482-1.525h-.29l.321-3.05-.784-.861H12.776l-.776.86 3.137 22.724.776.704h15.605l.777-.704.699-6.29h1.38c2.447 0 4.517-1.9 4.721-4.333l.33-3.942a4.723 4.723 0 0 0-1.24-3.583Zm-5.106-3.872-.347 2.565h-18.76l-.326-2.565H33.08Zm4.455 11.272c-.134 1.627-1.522 2.894-3.16 2.894h-1.216l1.082-10.255h.463c.894 0 1.725.36 2.329 1.017.604.657.902 1.51.823 2.402l-.321 3.942Z" id="Shape" fill="#000"/></g></svg>