<svg viewBox="0 0 30 30" width="25" height="25" xmlns="http://www.w3.org/2000/svg"><g id="Page-1" stroke="none" stroke-width="1" fill="none" fill-rule="evenodd" transform="matrix(.31529 0 0 .31529 2.777 2.3)"><g id="17" fill="#000"><path d="M74.94 41.25c-1.613 4.456-3.904 8.568-6.086 10.42a11.903 11.903 0 0 1-4.327 2.048 10.17 10.17 0 0 1-1.475.26c-.172.018-.31.025-.397.033l-.099.003h-3.631l6.17-31.5h8.396l.025-.004v.004l.022-.004c.19-.004 1.239.055 2.15.768.462.359.917.878 1.281 1.72.361.841.627 2.016.627 3.67.004 3.26-1.02 8.114-2.655 12.581M3.078 10.202c.153-.175.405-.278.714-.278h60.775c.313 0 .568.1.71.275.142.18.186.439.128.746l-1.756 8.945H4.652l-1.708-8.93c-.055-.308-.011-.578.134-.758M79.173 24.04c-.772-1.81-2.047-2.86-3.172-3.373a6.026 6.026 0 0 0-2.463-.567H65.57l1.719-8.78C67.648 9.492 66.425 8 64.567 8H3.792C1.942 8 .707 9.493 1.06 11.322l10.96 57.352c.347 1.83 2.15 3.326 4.004 3.326h36.002c1.857 0 3.664-1.496 4.021-3.322l2.404-12.253h4.083c.182-.007 4.05-.007 7.803-2.864l.032-.022.022-.019c2.776-2.396 5.07-6.746 6.804-11.436 1.712-4.702 2.798-9.696 2.805-13.417 0-1.91-.306-3.424-.827-4.628" id="Fill-6"/></g></g></svg>