<svg version="1.1" id="Layer_1" xmlns="http://www.w3.org/2000/svg" x="0" y="0" width="25" height="25" style="enable-background:new 0 0 25 25" xml:space="preserve"><style>.st0{fill:none;stroke:#000;stroke-width:1.0498px;stroke-linejoin:bevel}</style><path class="st0" d="M18 6.8V5.6c.1-1.5-1.1-2.7-2.5-2.8h-.2c-.5 0-1 .2-1.5.5C13 1.4 10.9.5 9 1.3c-.9.4-1.6 1.1-2 2-.4-.3-.9-.5-1.4-.5-1.6.1-2.9 1.4-2.8 3v1H18zM17.5 8.9h2.4c1.6 0 2.9 1.3 2.9 2.9 0 1.6-1.3 2.9-2.9 2.9H17"/><path d="m17.4 6.8-1.9 14.7H5.4l-2-14.7H2.3l2.1 15.3.5.4h11l.5-.4 2.1-15.3z"/><path d="M17.6 9.4H3.2l-.1-1.1h14.6z"/><path d="M2.9 8.9 5.1 22l2.6.1 3.9.2 3.5-.3 1-.6 1.1-8.5.4-3.4v-.6z"/></svg>