<?xml version="1.0" encoding="utf-8"?>
<svg viewBox="0 0 30 30" width="30" height="30" style="enable-background: new 0 0 25 25" xmlns="http://www.w3.org/2000/svg">
  <defs>
    <style>.st0 {
  fill: #d5d5d5;
}

</style>
  </defs>
  <path class="st0" d="M 23.036 4.429 L 20.936 4.429 L 20.936 1.129 C 20.936 0.629 20.636 0.229 20.036 0.229 L 6.036 0.229 C 5.536 0.229 5.236 0.529 5.236 1.129 L 5.236 20.629 C 5.236 22.529 6.736 24.029 8.636 24.029 L 17.536 24.029 C 19.436 24.029 20.936 22.529 20.936 20.629 L 20.936 13.829 L 23.036 13.829 C 23.936 13.829 24.736 13.029 24.736 12.129 L 24.736 6.229 C 24.736 5.229 23.936 4.429 23.036 4.429 Z M 19.636 1.529 L 19.636 2.829 L 6.436 2.829 L 6.436 1.529 L 19.636 1.529 Z M 23.436 12.129 C 23.436 12.429 23.236 12.529 23.036 12.529 L 20.936 12.529 L 20.936 5.729 L 23.036 5.729 C 23.336 5.729 23.436 5.929 23.436 6.129 L 23.436 12.129 Z" style="fill: #000" transform="matrix(0.9999999999999999, 0, 0, 0.9999999999999999, -4.440892098500626e-16, 0)"></path>
</svg>