<svg width="30" height="30" style="enable-background:new 0 0 25 25" xmlns="http://www.w3.org/2000/svg"><path d="M22.937 8.685h-2.243V5.907c0-.534-.321-.961-.962-.961H6.593c-.534 0-.961.321-.961.961v14.528a3.602 3.602 0 0 0 3.632 3.632h7.691a3.602 3.602 0 0 0 3.632-3.632v-1.816h2.243c.962 0 1.816-.854 1.816-1.816v-6.302c.107-1.068-.641-1.816-1.709-1.816Zm-3.632-2.35v5.02H7.021v-5.02h12.284Zm4.059 10.468c0 .321-.213.427-.427.427h-2.243v-7.157h2.243c.32 0 .427.214.427.428v6.302Z" style="fill:#010101"/></svg>