<svg height="30" width="30" xmlns="http://www.w3.org/2000/svg"><filter id="a"><feColorMatrix in="SourceGraphic" values="0 0 0 0 0.000000 0 0 0 0 0.000000 0 0 0 0 0.000000 0 0 0 1.000000 0"/></filter><g fill="none" fill-rule="evenodd" filter="url('#a')"><g fill="#1d1d1b" fill-rule="nonzero"><path d="M19.61 10.858h.628l.32-.615a4.169 4.169 0 0 1-.39-4.048l-.359-.546h-.884L23.9.666 23.631 0H8.047l-.39.495 1.414 5.154h-.46l-.389.495c.147.514.224 1.044.23 1.578v.433c0 .818 0 1.527-.28 2.142l.35.561h.499L5.094 26.264A3 3 0 0 0 7.996 30h12.659a2.996 2.996 0 0 0 2.902-3.736zm-.39-4.43a4.975 4.975 0 0 0 .312 3.651H9.1c.14-.639.192-1.295.152-1.948v-.42a6.397 6.397 0 0 0-.14-1.294zM8.539.78h14.135l-4.859 4.87H9.882zm13.87 27.585a2.21 2.21 0 0 1-1.753.857H7.996a2.217 2.217 0 0 1-2.147-2.763l3.998-15.584h8.96l3.998 15.584c.17.663.024 1.367-.397 1.906z"/><path d="M18.38 12.417 21.8 25.76a2.19 2.19 0 0 1-2.123 2.727H9.048a2.19 2.19 0 0 1-2.12-2.727l3.421-13.344z"/></g></g></svg>