<?xml version="1.0" encoding="utf-8"?>
<!-- Generator: Adobe Illustrator 23.0.3, SVG Export Plug-In . SVG Version: 6.00 Build 0)  -->
<svg version="1.1" id="Layer_1" xmlns="http://www.w3.org/2000/svg" xmlns:xlink="http://www.w3.org/1999/xlink" x="0px" y="0px" width="30px" height="30px" viewBox="0 0 30 30" style="enable-background: new 0 0 30 30" xml:space="preserve">
<path d="M22,15.9h-2.3V14c0-0.6-0.3-0.9-1-0.9H6.9C6.4,13.1,6,13.4,6,14v12.3C6,28.4,7.7,30,9.8,30h6.1c2.1,0,3.8-1.7,3.8-3.8v-1.9
	H22c1,0,1.9-0.9,1.9-1.9v-4.8C23.8,16.8,23,15.9,22,15.9z M18.2,14.4v1.4v3.8H7.4v-5.2H18.2z M22.4,22.5c0,0.3-0.2,0.4-0.4,0.4h-2.3
	v-5.6H22c0.3,0,0.4,0.2,0.4,0.4V22.5z"></path>
</svg>
