<svg xmlns="http://www.w3.org/2000/svg" viewBox="0 0 30 30" style="enable-background:new 0 0 30 30" xml:space="preserve"><style>.st2{fill:#1d1d1b}</style><g id="Layer_2"><path class="st2" d="M7.6 8h11.9v.6H7.6zM11.6 13.9l-2.3-1.4-.1-.4 1.3-2.3.5-.1 2.3 1.4.1.4-1.3 2.3-.5.1zm-1.7-1.7 1.8 1 1-1.8-1.8-1-1 1.8zM17.1 13.8l-2.7-.4-.3-.3.4-2.7.3-.3 2.7.4.3.3-.4 2.7-.3.3zm-2.3-.9 2.1.3.3-2.1-2.1-.3-.3 2.1zM15.1 18.3l-2.7-.4-.3-.3.4-2.7.3-.3 2.7.4.3.3-.4 2.7-.3.3zm-2.3-1 2.1.3.3-2.1-2.1-.3-.3 2.1z"/><path class="st2" d="m16.6 8.3-.6-.1.6-5.5.1-.2L20.3 0l.3.5-3.4 2.4zM8.7 18.9l.5 5h8.7l.5-5z"/><path class="st2" d="M17.9 24.2H9.2l-.3-.3L7.1 6.3l.3-.3h12.3l.3.3-1.8 17.6-.3.3zm-8.5-.6h8.1l1.7-17H7.7l1.7 17z"/><path style="fill:none" d="M-78.7-55.9H63v99.2H-78.7z"/></g></svg>