<?xml version="1.0" encoding="utf-8"?>
<svg viewBox="0 0 30 30" width="30" height="30" style="enable-background:new 0 0 25 25;" xmlns="http://www.w3.org/2000/svg">
  <defs>
    <style type="text/css">
	.st0{fill:#D5D5D5;}
</style>
  </defs>
  <path class="st0" d="M 22.984 8.314 L 20.928 8.314 L 20.928 4.987 C 20.928 4.498 20.635 4.106 20.048 4.106 L 6.35 4.106 C 5.86 4.106 5.567 4.4 5.567 4.987 L 5.567 20.741 C 5.567 22.599 7.035 24.067 8.894 24.067 L 17.602 24.067 C 19.461 24.067 20.928 22.599 20.928 20.741 L 20.928 17.413 L 22.984 17.413 C 23.864 17.413 24.647 16.631 24.647 15.75 L 24.647 9.879 C 24.647 8.999 23.864 8.314 22.984 8.314 Z M 19.657 8.314 L 6.742 8.314 L 6.742 5.378 L 19.657 5.378 L 19.657 8.314 Z M 23.375 15.75 C 23.375 16.044 23.179 16.142 22.984 16.142 L 20.928 16.142 L 20.928 9.488 L 22.984 9.488 C 23.277 9.488 23.375 9.684 23.375 9.879 L 23.375 15.75 Z" style="fill: rgb(0, 0, 0);" transform="matrix(0.9999999999999999, 0, 0, 0.9999999999999999, -4.440892098500626e-16, 0)"/>
</svg>