<?xml version="1.0" encoding="utf-8"?>
<!-- Generator: Adobe Illustrator 23.0.6, SVG Export Plug-In . SVG Version: 6.00 Build 0)  -->
<svg version="1.1" xmlns="http://www.w3.org/2000/svg" xmlns:xlink="http://www.w3.org/1999/xlink" x="0px" y="0px"
	 viewBox="0 0 30 30" style="enable-background:new 0 0 30 30;" xml:space="preserve">
<style type="text/css">
	.st0{display:none;}
	.st1{display:inline;fill:#010101;}
	.st2{fill:#1D1D1B;}
	.st3{fill:none;}
</style>
<g id="Layer_1" class="st0">
	<path class="st1" d="M22.9,8.7h-2.2V5.9c0-0.5-0.3-1-1-1H6.6c-0.5,0-1,0.3-1,1v14.5c0,2,1.6,3.6,3.6,3.6H17c2,0,3.6-1.6,3.6-3.6
		v-1.8h2.2c1,0,1.8-0.9,1.8-1.8v-6.3C24.8,9.4,24,8.7,22.9,8.7z M19.3,6.3v2.2v2.8H7v-5H19.3z M23.4,16.8c0,0.3-0.2,0.4-0.4,0.4
		h-2.2v-7.2h2.2c0.3,0,0.4,0.2,0.4,0.4V16.8z"/>
</g>
<g id="Layer_2">
	<g>
		<rect x="7.6" y="8" class="st2" width="11.9" height="0.6"/>
	</g>
	<g>
		<path class="st2" d="M11.6,13.9l-2.3-1.4l-0.1-0.4l1.3-2.3L11,9.7l2.3,1.4l0.1,0.4l-1.3,2.3L11.6,13.9z M9.9,12.2l1.8,1l1-1.8
			l-1.8-1L9.9,12.2z"/>
	</g>
	<g>
		<path class="st2" d="M17.1,13.8l-2.7-0.4l-0.3-0.3l0.4-2.7l0.3-0.3l2.7,0.4l0.3,0.3l-0.4,2.7L17.1,13.8z M14.8,12.9l2.1,0.3
			l0.3-2.1l-2.1-0.3L14.8,12.9z"/>
	</g>
	<g>
		<path class="st2" d="M15.1,18.3l-2.7-0.4l-0.3-0.3l0.4-2.7l0.3-0.3l2.7,0.4l0.3,0.3L15.4,18L15.1,18.3z M12.8,17.3l2.1,0.3
			l0.3-2.1l-2.1-0.3L12.8,17.3z"/>
	</g>
	<g>
		<polygon class="st2" points="16.6,8.3 16,8.2 16.6,2.7 16.7,2.5 20.3,0 20.6,0.5 17.2,2.9 		"/>
	</g>
	<g>
		<polygon class="st2" points="8.7,18.9 9.2,23.9 17.9,23.9 18.4,18.9 		"/>
	</g>
	<g>
		<path class="st2" d="M17.9,24.2H9.2l-0.3-0.3L7.1,6.3L7.4,6h12.3L20,6.3l-1.8,17.6L17.9,24.2z M9.4,23.6h8.1l1.7-17H7.7L9.4,23.6z
			"/>
	</g>
	<g>
		<rect x="-78.7" y="-55.9" class="st3" width="141.7" height="99.2"/>
	</g>
</g>
</svg>
